<svg xmlns="http://www.w3.org/2000/svg" width="45" height="47" viewBox="0 0 144 151"><defs><clipPath id="cp1" clipPathUnits="userSpaceOnUse"><path d="M0 0h144v151H0z"/></clipPath></defs><g id="Page 1" clip-path="url(#cp1)"><path id="Path 1" fill="#43a9ff" fill-rule="evenodd" d="M106.51 110.77c0 2.87-.56 5.65-1.68 8.27a3.497 3.497 0 01-3.22 2.12h-59c-1.41 0-2.67-.83-3.22-2.12a20.95 20.95 0 01-1.69-8.27c0-6.82 3.29-13.19 8.83-17.15a31.13 31.13 0 006.62-18.15c.44-11.58 9.09-15.71 17.03-15.71h3.38c8.17 0 17.06 4.13 17.5 15.71.33 8.87 4.17 15.06 6.63 18.14a21.072 21.072 0 018.82 17.16zm-7 0c0-4.68-2.31-9.04-6.19-11.67-.28-.19-.53-.41-.74-.67-3-3.63-8.09-11.41-8.52-22.7-.22-5.95-3.75-8.97-10.5-8.97h-3.38c-6.43 0-9.8 3.02-10.03 8.97-.43 11.28-5.52 19.07-8.52 22.7-.21.26-.46.48-.73.67-3.88 2.63-6.2 6.99-6.2 11.67 0 1.16.14 2.29.41 3.39H99.1c.28-1.1.41-2.23.41-3.39zm-13.99 26.82c0 7.39-6.02 13.41-13.41 13.41-7.4 0-13.41-6.02-13.41-13.41 0-7.39 6.01-13.4 13.41-13.4 7.39 0 13.41 6.01 13.41 13.4zm-7 0c0-3.53-2.88-6.4-6.41-6.4-3.54 0-6.41 2.87-6.41 6.4 0 3.53 2.87 6.41 6.41 6.41 3.53 0 6.41-2.88 6.41-6.41zm65.69-106.5a3.48 3.48 0 01-1.84 2.9c-.5.35-1.09.57-1.75.61-5.75.35-9.89 2.1-12.31 5.2-2.7 3.47-2.73 7.95-2.59 9.94.05.63.11 1.01.12 1.03a3.5 3.5 0 01-3.44 4.15c-.3 0-.58-.08-.86-.15-.79-.28-1.49-.81-1.92-1.6-.02-.04-.22-.39-.6-.93-1.16-1.67-4.02-5.09-8.29-6.05-3.82-.87-8.12.39-12.78 3.73a3.505 3.505 0 01-4.89-.8c-.62-.87-2.29-9.18-5.97-11.74-2.79-1.93-6.51-2.52-11.08-1.77-.38 3.98.32 7.26 2.12 9.75 3.39 4.7 9.77 5.44 9.84 5.44 1.92.19 3.33 1.9 3.14 3.82a3.504 3.504 0 01-3.48 3.17c-.11 0-.22-.01-.34-.02-.38-.04-9.55-1-14.84-8.31-.16-.22-.29-.46-.43-.69-.09.13-.16.27-.25.39-5.18 7.39-14.34 8.47-14.72 8.51-.14.02-.26.02-.39.02-1.76 0-3.28-1.32-3.48-3.12a3.507 3.507 0 013.09-3.86c.13-.01 6.5-.85 9.81-5.61 1.7-2.46 2.36-5.64 1.98-9.47-4.65-.73-8.41-.08-11.2 1.94-3.61 2.61-5.16 10.9-5.77 11.78a3.5 3.5 0 01-4.87.87c-4.71-3.28-9.02-4.48-12.84-3.56-4.26 1.02-7.06 4.47-8.21 6.16-.38.56-.58.92-.59.94-.43.81-1.14 1.36-1.95 1.64-.27.06-.55.15-.84.15-.2 0-.41-.02-.61-.06a3.502 3.502 0 01-2.85-4.03c.01-.02.07-.41.11-1.05.12-2.01.03-6.51-2.76-9.95-2.46-3.04-6.61-4.72-12.34-4.99A3.501 3.501 0 010 31.81c.06-1.28.82-2.36 1.88-2.92.5-.33 1.08-.55 1.71-.59 5.73-.34 9.86-2.08 12.28-5.16 2.74-3.47 2.77-7.97 2.62-9.98-.05-.63-.11-1.03-.11-1.04-.35-1.9.91-3.72 2.8-4.07.47-.09.93-.08 1.37.02.84.26 1.59.83 2.04 1.66.01.02.22.4.63.97 1.18 1.68 4.02 5.06 8.27 6.02 1.06.24 2.17.3 3.31.21V9.81C36.8.42 43.42-.31 45.45-.31c7.12 0 17.05 7.17 20.07 9.48a7.35 7.35 0 012.82-.56h10.11c1.12 0 2.16.27 3.11.71C84.31 7.2 94.54-.31 101.83-.31c2.03 0 8.65.73 8.65 10.12v6.49c.13-.02.27-.03.4-.07 4.21-1.03 6.99-4.43 8.14-6.11.39-.57.59-.94.6-.96.45-.86 1.2-1.45 2.05-1.72.44-.09.9-.11 1.37-.03 1.89.34 3.16 2.14 2.84 4.04 0 .02-.06.41-.1 1.04-.12 2.01-.03 6.51 2.75 9.95 2.46 3.04 6.62 4.72 12.35 4.99a3.5 3.5 0 013.33 3.66zM103.48 9.81c0-3.12-.84-3.12-1.65-3.12-3.81 0-10.82 4.29-15.2 7.56V26.3c1.68 1.25 3.73 2.64 5.85 3.89 3.43 2.03 7.01 3.67 9.35 3.67.81 0 1.65 0 1.65-3.11V9.81zM78.69 24.86l-.03-9.23c-.03.01-.09-.02-.21-.02H68.34a.35.35 0 00-.24.08l.04 9.26c.01-.05.09-.01.2-.01h10.11c.17 0 .24-.08.24-.08zM60.64 14.25c-4.38-3.27-11.4-7.56-15.19-7.56-.81 0-1.65 0-1.65 3.12v20.94c0 3.11.84 3.11 1.65 3.11 1.94 0 4.73-1.13 7.58-2.67 2.39-1.29 4.8-2.86 6.81-4.31.27-.19.55-.39.8-.58V14.25zm-18.25 26.1c-2.58-.89-5.59-3.28-5.59-9.6v-6.8c-.3.01-.59.04-.88.04-1.37 0-2.72-.16-4.06-.47-2.77-.64-5.11-1.88-7.02-3.29-.58 2.36-1.62 4.87-3.41 7.17-1.41 1.81-3.12 3.3-5.13 4.5 1.89 1.14 3.53 2.54 4.88 4.23 1.83 2.28 2.9 4.78 3.51 7.12 1.89-1.43 4.21-2.7 6.97-3.38 3.45-.85 7.03-.64 10.7.57l.03-.09zm85.53-9.34c-1.9-1.14-3.54-2.55-4.89-4.24-1.83-2.28-2.89-4.77-3.51-7.12-1.89 1.43-4.21 2.71-6.97 3.38-.68.17-1.37.29-2.07.38v7.34c0 4.32-1.41 6.79-3.12 8.22 1.69-.09 3.36.03 5 .41 2.77.64 5.1 1.88 7.01 3.29.59-2.35 1.62-4.86 3.42-7.17 1.4-1.8 3.12-3.3 5.13-4.49z"/></g></svg>
