<svg xmlns="http://www.w3.org/2000/svg" viewBox="0 0 167 149" width="52" height="46"><defs><clipPath clipPathUnits="userSpaceOnUse" id="cp1"><path d="M0 0h167v149H0z"/></clipPath></defs><style>.shp0{fill:#43a9ff}</style><g id="Page 1" clip-path="url(#cp1)"><path id="Path 1" fill-rule="evenodd" class="shp0" d="M166.7 20.56a3.491 3.491 0 01-3.15 1.96c-.51 0-1.04-.11-1.53-.35l-6.63-3.25-28.29 7.57 18.64 11.12a3.497 3.497 0 01-1.8 6.5c-.61 0-1.23-.16-1.79-.49l-24.48-14.61-6.24 1.66v24.22c0 1.93-1.56 3.5-3.5 3.5-1.93 0-3.5-1.57-3.5-3.5V32.54l-29.69 7.94 20.33 12.13a3.5 3.5 0 011.21 4.8 3.478 3.478 0 01-3 1.71 3.5 3.5 0 01-1.8-.5L65.89 43.34c-.18-.1-.34-.23-.5-.36l-15.34 4.1v34c0 1.93-1.57 3.5-3.5 3.5-1.94 0-3.5-1.57-3.5-3.5V48.95L4.4 59.27A3.5 3.5 0 01.12 56.8c-.5-1.87.61-3.79 2.48-4.29l10.78-2.88c.02-.04.03-.09.05-.13L28 23.49a3.485 3.485 0 014.76-1.34c1.69.94 2.29 3.07 1.34 4.76l-11.31 20.2L53.9 38.8c0-.01.01-.03.02-.04l14.56-26.01a3.497 3.497 0 014.76-1.35 3.51 3.51 0 011.35 4.77L63.32 36.28l31.17-8.33c.04-.06.06-.13.09-.2l14.56-26.01A3.516 3.516 0 01113.91.4c1.68.94 2.29 3.08 1.34 4.76L103.9 25.44l49.25-13.16 2.46-6.87a3.511 3.511 0 014.48-2.11c1.82.65 2.77 2.66 2.11 4.48l-2.04 5.69 4.94 2.41c1.73.85 2.45 2.95 1.6 4.68zM70.81 126.12c0 12.61-10.27 22.88-22.89 22.88-12.62 0-22.88-10.27-22.88-22.88 0-12.62 10.26-22.89 22.88-22.89s22.89 10.27 22.89 22.89zm-7 0c0-8.76-7.13-15.89-15.89-15.89-8.76 0-15.88 7.13-15.88 15.89 0 8.75 7.12 15.88 15.88 15.88 8.76 0 15.89-7.13 15.89-15.88zm-14.36-8.62c0 1.93-1.56 3.5-3.5 3.5-1.61 0-2.32.53-2.71.92-1.17 1.18-1.4 3.38-1.39 4.12.02 1.93-1.51 3.52-3.43 3.56h-.07c-1.89 0-3.45-1.49-3.5-3.39-.02-.57-.06-5.65 3.35-9.15 1.95-2 4.63-3.06 7.75-3.06 1.94 0 3.5 1.57 3.5 3.5zm-5.18-16.25c-1.93 0-3.5-1.56-3.5-3.5v-4.42c0-3.19 2.59-5.78 5.78-5.78 3.18 0 5.77 2.59 5.77 5.78v4.42c0 1.94-1.57 3.5-3.5 3.5h-4.55z"/><path id="Path 2" fill-rule="evenodd" class="shp0" d="M138.15 113.02c0 16.66-13.55 30.21-30.21 30.21s-30.22-13.55-30.22-30.21S91.28 82.8 107.94 82.8c16.66 0 30.21 13.56 30.21 30.22zm-7 0c0-12.8-10.41-23.22-23.21-23.22s-23.22 10.42-23.22 23.22c0 12.8 10.42 23.21 23.22 23.21 12.8 0 23.21-10.41 23.21-23.21zm-22.43-11.88c0 1.94-1.56 3.5-3.5 3.5-2.06 0-3.6.56-4.71 1.7-2.28 2.35-2.27 6.54-2.27 6.58.06 1.93-1.47 3.54-3.4 3.6h-.1c-1.89 0-3.44-1.5-3.5-3.41-.02-.72-.07-7.21 4.25-11.65 2.43-2.5 5.8-3.82 9.73-3.82 1.94 0 3.5 1.57 3.5 3.5zm-3.92-23.7c-1.93 0-3.5-1.57-3.5-3.5v-6.1a6.65 6.65 0 016.64-6.64c3.65 0 6.63 2.98 6.63 6.64v6.1c0 1.93-1.57 3.5-3.5 3.5h-6.27z"/></g></svg>
