<svg xmlns="http://www.w3.org/2000/svg" viewBox="0 0 161 154" width="50" height="47"><defs><clipPath clipPathUnits="userSpaceOnUse" id="cp1"><path d="M0 0h161v154H0z"/></clipPath></defs><style>.shp0{fill:#43a9ff}</style><g id="Page 1" clip-path="url(#cp1)"><path id="Path 1" class="shp0" d="M50.7 8.23a4.02 4.02 0 004.02-4.02c0-2.22-1.81-4.02-4.02-4.02a4.02 4.02 0 00-4.02 4.02c0 2.23 1.8 4.02 4.02 4.02zM8.71 24.21a4.02 4.02 0 000-8.04c-2.21 0-4.02 1.8-4.02 4.02 0 2.22 1.81 4.02 4.02 4.02zm118 40.96c-2.21 0-4.02 1.8-4.02 4.02 0 2.22 1.81 4.02 4.02 4.02a4.02 4.02 0 000-8.04zM4.02 125.46a4.02 4.02 0 100 8.04 4.02 4.02 0 000-8.04zm155.05-23.14l1.24-1.25a3.495 3.495 0 000-4.95 3.513 3.513 0 00-4.95 0l-1.24 1.25-1.25-1.25a3.513 3.513 0 00-4.95 0 3.495 3.495 0 000 4.95l1.25 1.25-1.25 1.25a3.495 3.495 0 002.47 5.97c.9 0 1.79-.34 2.48-1.02l1.25-1.25 1.24 1.24c.69.69 1.58 1.03 2.48 1.03.89 0 1.79-.34 2.47-1.03a3.495 3.495 0 000-4.95l-1.24-1.24zM41.7 43.19c2.22 0 4.02-1.79 4.02-4.01a4.02 4.02 0 00-8.04 0c0 2.22 1.8 4.01 4.02 4.01zm92-23l-3.99 3.99a3.495 3.495 0 002.47 5.97c.9 0 1.8-.34 2.48-1.02l3.99-3.99 3.98 3.99a3.49 3.49 0 002.47 1.02 3.497 3.497 0 002.48-5.97l-3.99-3.99 3.99-3.98a3.495 3.495 0 000-4.95 3.495 3.495 0 00-4.95 0l-3.98 3.98-3.99-3.98a3.495 3.495 0 00-4.95 0 3.495 3.495 0 000 4.95l3.99 3.98zm-8.73 4.02a4.02 4.02 0 100-8.04 4.02 4.02 0 000 8.04zm27.25 0a4.02 4.02 0 100-8.04 4.02 4.02 0 000 8.04zm-13.58 5.64a4.02 4.02 0 100 8.04 4.02 4.02 0 000-8.04zm0-19.31a4.02 4.02 0 100-8.04 4.02 4.02 0 000 8.04z"/><path id="Path 2" fill-rule="evenodd" class="shp0" d="M16.48 82.59a9.57 9.57 0 01-5.49-5.4H6.15c-1.94 0-3.5-1.57-3.5-3.5s1.56-3.5 3.5-3.5h4.84a9.57 9.57 0 015.49-5.4v-4.94c0-1.93 1.57-3.5 3.5-3.5 1.94 0 3.5 1.57 3.5 3.5v5.03a9.61 9.61 0 015.22 5.31h5.12c1.93 0 3.5 1.57 3.5 3.5s-1.57 3.5-3.5 3.5H28.7a9.61 9.61 0 01-5.22 5.31v5.03c0 1.93-1.56 3.5-3.5 3.5-1.93 0-3.5-1.57-3.5-3.5v-4.94zm.82-8.9c0 1.4 1.14 2.54 2.54 2.54 1.4 0 2.54-1.14 2.54-2.54 0-1.4-1.14-2.54-2.54-2.54-1.4 0-2.54 1.14-2.54 2.54z"/><path id="Path 3" fill-rule="evenodd" class="shp0" d="M151 136.98a3.507 3.507 0 01.2 4.95c-7.41 8.03-17.86 12.07-30.88 12.07-9.71 0-20.85-2.24-33.25-6.75-33.56-12.21-66.02-.97-66.35-.85a3.51 3.51 0 01-4.47-2.13 3.51 3.51 0 012.13-4.47c.52-.18 5.3-1.84 12.89-3.25v-28.26c0-1.93 1.56-3.5 3.5-3.5h23.3v-19.6c0-1.93 1.57-3.5 3.5-3.5h2.82V58.58c0-.29.04-.56.1-.82.06-.26.13-.53.25-.79l12.6-26.94c-.02-.16-.05-.33-.05-.51V18.16h-4.16c-1.94 0-3.5-1.57-3.5-3.5 0-1.94 1.56-3.5 3.5-3.5h4.16V3.52c0-1.93 1.57-3.5 3.5-3.5 1.94 0 3.5 1.57 3.5 3.5v7.64h4.17c1.93 0 3.5 1.56 3.5 3.5 0 1.93-1.57 3.5-3.5 3.5h-4.17v11.33c.01.01.02.02.02.03l12.84 27.45c0 .01 0 .02.01.03.24.48.39 1.01.39 1.58v23.11h3.65c1.93 0 3.5 1.57 3.5 3.5v19.6h23.48c1.94 0 3.5 1.57 3.5 3.5v37.33c5.43-1.43 10.37-4.1 14.38-8.44a3.494 3.494 0 014.94-.2zm-92.93-2.37v-22.82h-19.8v23.67c5.75-.72 12.47-1.15 19.8-.85zm32.46-12.39v18.83c2.31.82 4.71 1.6 7.17 2.31v-31.57H65.07v23.33c2.12.23 4.27.51 6.45.88v-13.78c0-1.94 1.57-3.5 3.5-3.5h12.01c1.94 0 3.5 1.56 3.5 3.5zm-7 3.5h-5.01v11.69c1.66.39 3.33.83 5.01 1.33v-13.02zm-18.46-20.93H97.7v-16.1H65.07v16.1zm6.32-23.1h19.16V62.08H71.39v19.61zm9.56-42.84l-7.59 16.23h15.18l-7.59-16.23zm43.73 107.97v-35.03H104.7v33.36c6.66 1.46 13.52 2.22 19.98 1.67zM86.36 71.81c0 2.98-2.44 5.42-5.43 5.42-2.98 0-5.42-2.44-5.42-5.42 0-2.99 2.44-5.43 5.42-5.43 2.99 0 5.43 2.44 5.43 5.43z"/></g></svg>
