<svg xmlns="http://www.w3.org/2000/svg" width="21" height="21" viewBox="0 0 781 808"><defs><clipPath id="a" clipPathUnits="userSpaceOnUse"><path d="M0 0h781v808H0z"/></clipPath></defs><g clip-path="url(#a)"><path fill-rule="evenodd" d="M773.03 757.36c10.86 11.33 10.86 29.28 0 40.14-5.2 5.66-12.75 8.5-19.84 8.5-7.08 0-14.16-2.84-19.83-8.5L500.55 564.7c-52.41 39.19-117.1 62.33-187.46 62.33C140.25 627.03 0 486.3 0 313.95 0 141.58 140.25.86 313.09.86c172.82 0 313.07 140.72 313.07 313.09 0 82.16-32.11 156.78-83.57 212.5l230.44 230.91zm-459.94-187c141.66 0 256.41-114.75 256.41-256.41 0-141.67-115.22-256.42-256.41-256.42-141.67 0-256.43 115.22-256.43 256.42 0 141.19 114.76 256.41 256.43 256.41z"/></g></svg>
