<svg xmlns="http://www.w3.org/2000/svg" width="48" height="48" viewBox="0 0 155 155"><defs><clipPath id="cp1" clipPathUnits="userSpaceOnUse"><path d="M0 0h155v155H0z"/></clipPath></defs><g id="Page 1" clip-path="url(#cp1)"><path id="Path 1" fill="#43a9ff" fill-rule="evenodd" d="M154.71 77.47c.13 1.93-1.34 3.6-3.27 3.72-5.42.35-10.84.49-16.22.55l14.08 14.09a3.483 3.483 0 010 4.94 3.46 3.46 0 01-2.47 1.03c-.9 0-1.79-.34-2.48-1.03l-19.04-19.04c-4.32-.05-8.58-.13-12.77-.26-.74 6.88-3.43 13.31-7.84 18.65l8.53 8.54h27.86c1.93 0 3.5 1.56 3.5 3.5 0 1.93-1.57 3.5-3.5 3.5h-20.86l11.78 11.77c.69.69 1.03 1.58 1.03 2.48 0 .9-.34 1.79-1.03 2.47a3.46 3.46 0 01-2.47 1.03 3.5 3.5 0 01-2.48-1.03l-11.69-11.69v20.68c0 1.94-1.56 3.5-3.5 3.5-1.93 0-3.5-1.56-3.5-3.5v-27.68l-.43-.43-8.2-8.2a34.98 34.98 0 01-18.94 7.81v12.07l19.69 19.7a3.495 3.495 0 01-2.47 5.97c-.9 0-1.79-.34-2.48-1.02L80.8 134.84v16.66c0 1.93-1.57 3.5-3.5 3.5-1.94 0-3.5-1.57-3.5-3.5v-16.54l-14.63 14.63a3.514 3.514 0 01-4.95 0 3.513 3.513 0 010-4.95l19.58-19.57v-12.21a35.07 35.07 0 01-18.93-7.87l-8.53 8.53v27.85c0 1.94-1.56 3.5-3.5 3.5-1.93 0-3.5-1.56-3.5-3.5v-20.85L27.56 132.3c-.17.17-.35.32-.55.45-.58.38-1.25.57-1.92.57a3.495 3.495 0 01-2.48-5.97l11.69-11.69H13.63c-1.94 0-3.5-1.57-3.5-3.5 0-1.94 1.56-3.5 3.5-3.5H41.3l8.63-8.63c-4.51-5.52-7.1-12.1-7.77-18.83H29.93l-19.57 19.57c-.68.69-1.57 1.03-2.47 1.03a3.5 3.5 0 01-2.48-5.97L20.04 81.2H3.5c-1.93 0-3.5-1.56-3.5-3.5 0-1.93 1.57-3.5 3.5-3.5h16.66L5.41 59.46a3.513 3.513 0 010-4.95 3.495 3.495 0 014.95 0l19.7 19.69h12.08a35.33 35.33 0 017.79-18.94l-8.62-8.63H13.63c-1.93 0-3.5-1.57-3.5-3.5 0-1.94 1.57-3.5 3.5-3.5h20.68l-11.7-11.7c-.57-.57-.89-1.31-.98-2.06-.12-1.03.19-2.1.98-2.89a3.513 3.513 0 014.95 0l11.78 11.78V13.91c0-1.94 1.57-3.5 3.5-3.5s3.5 1.56 3.5 3.5v27.85l8.54 8.53c5.4-4.46 11.94-7.18 18.92-7.87v-12.2L54.22 10.65a3.513 3.513 0 010-4.95 3.495 3.495 0 014.95 0L73.8 20.32V3.78c0-1.93 1.56-3.5 3.5-3.5 1.93 0 3.5 1.57 3.5 3.5v16.66L95.54 5.69a3.513 3.513 0 014.95 0 3.495 3.495 0 010 4.95L80.8 30.34v12.07c6.97.67 13.52 3.36 18.94 7.81l8.63-8.63V13.91c0-1.93 1.57-3.5 3.5-3.5s3.5 1.57 3.5 3.5v20.68l11.69-11.69a3.495 3.495 0 014.95 0 3.46 3.46 0 011.03 2.47c0 .04-.01.07-.01.1-.01.19-.02.38-.06.57-.11.6-.4 1.17-.84 1.66-.04.05-.07.1-.12.15l-11.78 11.77 20.86.01c1.93 0 3.5 1.56 3.5 3.5 0 1.93-1.57 3.5-3.5 3.5l-27.85-.01-8.54 8.54a34.99 34.99 0 017.9 19.32c3.79.11 7.63.2 11.53.26l20.22-20.23a3.495 3.495 0 014.95 0 3.492 3.492 0 01.01 4.94l-15.33 15.33c5.66-.04 11.34-.2 17.01-.57 1.94-.15 3.59 1.34 3.72 3.26zm-48.95.17c0-7.58-2.96-14.72-8.32-20.08-5.37-5.37-12.5-8.32-20.08-8.32-7.59 0-14.72 2.95-20.09 8.32-11.07 11.07-11.07 29.09 0 40.16 5.37 5.37 12.5 8.32 20.09 8.32 7.58 0 14.71-2.95 20.08-8.32 5.36-5.36 8.32-12.49 8.32-20.08zM94.47 65.48L82.3 77.64l12.17 12.17a3.495 3.495 0 010 4.95c-.68.68-1.58 1.03-2.47 1.03-.9 0-1.79-.35-2.48-1.03L77.35 82.59 65.19 94.76a3.514 3.514 0 01-4.95 0 3.495 3.495 0 010-4.95l12.17-12.17-12.17-12.16a3.495 3.495 0 010-4.95 3.495 3.495 0 014.95 0l12.16 12.16 12.17-12.16a3.495 3.495 0 014.95 0 3.495 3.495 0 010 4.95z"/></g></svg>
