<svg xmlns="http://www.w3.org/2000/svg" width="788" height="788" viewBox="0 0 155 155"><defs><clipPath id="cp1" clipPathUnits="userSpaceOnUse"><path d="M0 0h155v155H0z"/></clipPath></defs><g id="Page 1" clip-path="url(#cp1)"><path id="Path 1" fill="#f7f7fb" fill-rule="evenodd" d="M154.5 92.16c0 1.94-1.57 3.5-3.5 3.5-11.98 0-18.9-6.16-24.58-12.56-5.69 6.4-12.6 12.56-24.58 12.56-.35 0-.67-.02-1.01-.03l12.48 12.47 13.21-13.21a3.513 3.513 0 014.95 0 3.495 3.495 0 010 4.95l-13.21 13.21 14.54 14.54a3.495 3.495 0 010 4.95c-.68.69-1.58 1.03-2.48 1.03-.89 0-1.79-.34-2.47-1.03L113.31 118l-13.21 13.21c-.68.68-1.58 1.03-2.47 1.03-.9 0-1.79-.35-2.48-1.03a3.513 3.513 0 010-4.95l13.21-13.21-13.3-13.3c.07.84.1 1.7.1 2.59 0 11.98-6.17 18.89-12.56 24.58 6.4 5.68 12.56 12.6 12.56 24.58 0 1.93-1.56 3.5-3.5 3.5-1.93 0-3.5-1.57-3.5-3.5 0-9.51-4.85-14.68-10.91-19.97-6.06 5.29-10.91 10.46-10.91 19.97 0 1.93-1.57 3.5-3.5 3.5-1.94 0-3.5-1.57-3.5-3.5 0-11.98 6.17-18.9 12.57-24.58-6.4-5.69-12.57-12.61-12.57-24.59 0-1.04.06-2.03.15-3l-13.72 13.72 13.2 13.21a3.495 3.495 0 01-2.47 5.97c-.9 0-1.79-.34-2.47-1.02L40.82 118l-14.54 14.54c-.68.68-1.58 1.02-2.48 1.02a3.495 3.495 0 01-2.47-5.97l14.54-14.54-13.21-13.21a3.513 3.513 0 010-4.95 3.513 3.513 0 014.95 0l13.21 13.21 12.46-12.46c-.21 0-.4.02-.62.02-11.98 0-18.89-6.16-24.58-12.56-5.68 6.4-12.6 12.56-24.58 12.56-1.93 0-3.5-1.56-3.5-3.5 0-1.93 1.57-3.5 3.5-3.5 9.51 0 14.69-4.85 19.97-10.91-5.28-6.06-10.46-10.91-19.97-10.91-1.93 0-3.5-1.57-3.5-3.5 0-1.94 1.57-3.5 3.5-3.5 11.98 0 18.9 6.17 24.58 12.57 5.69-6.4 12.61-12.57 24.59-12.57.89 0 1.74.03 2.58.1L40.82 45.51l-13.2 13.21a3.514 3.514 0 01-4.95 0 3.495 3.495 0 010-4.95l13.2-13.21-14.54-14.54a3.495 3.495 0 010-4.95 3.513 3.513 0 014.95 0l14.54 14.54L54.03 22.4a3.513 3.513 0 014.95 0 3.495 3.495 0 010 4.95L45.77 40.56l13.6 13.61c-.01-.34-.03-.66-.03-1 0-11.99 6.17-18.9 12.57-24.59C65.51 22.9 59.34 15.98 59.34 4c0-1.93 1.56-3.5 3.5-3.5 1.93 0 3.5 1.57 3.5 3.5 0 9.51 4.85 14.69 10.91 19.97C83.31 18.69 88.16 13.51 88.16 4c0-1.93 1.57-3.5 3.5-3.5 1.94 0 3.5 1.57 3.5 3.5 0 11.98-6.16 18.9-12.56 24.58 6.4 5.69 12.56 12.6 12.56 24.58 0 .21-.02.41-.02.62l13.22-13.22-13.21-13.21a3.495 3.495 0 010-4.95 3.513 3.513 0 014.95 0l13.21 13.21 14.54-14.54a3.483 3.483 0 014.94 0 3.495 3.495 0 010 4.95l-14.53 14.54 13.21 13.21a3.513 3.513 0 010 4.95 3.514 3.514 0 01-4.95 0l-13.21-13.21-14.48 14.48c.97-.09 1.96-.15 3-.15 11.98 0 18.9 6.17 24.59 12.57 5.68-6.4 12.6-12.57 24.58-12.57 1.93 0 3.5 1.56 3.5 3.5 0 1.93-1.57 3.5-3.5 3.5-9.51 0-14.69 4.85-19.97 10.91 5.28 6.06 10.46 10.91 19.97 10.91 1.93 0 3.5 1.57 3.5 3.5zm-66.34 10.18c0-5.21-1.46-9.12-3.77-12.46-2.69-2.02-5-4.38-7.14-6.79-2.14 2.41-4.46 4.77-7.15 6.8-2.31 3.33-3.76 7.24-3.76 12.44 0 9.51 4.85 14.69 10.91 19.97 6.06-5.28 10.91-10.45 10.91-19.96zM62.44 86.48l9.07-9.08c-2.27-2.04-4.49-4.25-6.41-6.8-3.33-2.31-7.23-3.76-12.43-3.76-9.51 0-14.69 4.85-19.97 10.91 5.28 6.06 10.45 10.91 19.96 10.91 3.88 0 7.04-.81 9.78-2.18zm6.5-22.75l8.12 8.13 8.92-8.92c1.37-2.74 2.18-5.9 2.18-9.78 0-9.51-4.85-14.68-10.91-19.96-6.06 5.28-10.91 10.46-10.91 19.97 0 4.26.98 7.64 2.6 10.56zm52.86 14.02c-5.28-6.06-10.46-10.91-19.97-10.91-5.2 0-9.11 1.46-12.44 3.76-1.97 2.62-4.27 4.89-6.61 6.98l8.48 8.47c2.92 1.63 6.31 2.61 10.58 2.61 9.51 0 14.68-4.85 19.96-10.91z"/></g></svg>
