<svg xmlns="http://www.w3.org/2000/svg" viewBox="0 0 147 146" width="674" height="674"><defs><clipPath clipPathUnits="userSpaceOnUse" id="cp1"><path d="M0 0h147v146H0z"/></clipPath></defs><style>.shp0{fill:#fff}</style><g id="Page 1" clip-path="url(#cp1)"><path id="Path 1" fill-rule="evenodd" class="shp0" d="M145.48 88.46a3.487 3.487 0 01.25 4.94c-.69.77-1.64 1.16-2.6 1.16-.83 0-1.67-.31-2.34-.91l-19.13-17.27h-9.39l13.38 12.08a3.496 3.496 0 01.25 4.94c-.69.77-1.64 1.16-2.6 1.16-.83 0-1.67-.31-2.34-.91l-18.17-16.4a29.518 29.518 0 01-6.16 14.18l11.46 11.46a3.495 3.495 0 010 4.95c-.68.68-1.58 1.03-2.47 1.03-.9 0-1.79-.35-2.48-1.03L91.66 96.35a29.597 29.597 0 01-13.25 5.89l15.75 17.43a3.497 3.497 0 01-.26 4.94c-.66.61-1.5.9-2.34.9-.96 0-1.91-.38-2.6-1.15L76.63 110.7v9.39l17.53 19.41a3.496 3.496 0 01-.26 4.94c-.66.61-1.5.91-2.34.91-.96 0-1.91-.39-2.6-1.16l-12.33-13.66v11.97c0 1.93-1.57 3.5-3.5 3.5-1.94 0-3.5-1.57-3.5-3.5v-11.83l-12.22 13.52c-.69.77-1.64 1.16-2.6 1.16-.83 0-1.67-.3-2.34-.91a3.496 3.496 0 01-.26-4.94l17.42-19.28v-9.39l-12.22 13.53c-.69.77-1.64 1.15-2.6 1.15-.83 0-1.67-.29-2.34-.9a3.497 3.497 0 01-.26-4.94l15.78-17.47c-4.94-.89-9.46-3-13.23-6.01l-11.65 11.65c-.69.69-1.58 1.03-2.48 1.03-.89 0-1.79-.34-2.47-1.03a3.483 3.483 0 010-4.94l11.68-11.68c-2.78-3.55-4.79-7.72-5.74-12.29L27.8 93.65c-.67.6-1.51.91-2.34.91-.96 0-1.91-.39-2.6-1.16a3.487 3.487 0 01.25-4.94l13.38-12.08H27.1L7.97 93.65c-.67.6-1.51.91-2.35.91-.95 0-1.9-.39-2.59-1.16a3.487 3.487 0 01.25-4.94l13.38-12.08H3.5c-1.93 0-3.5-1.57-3.5-3.5 0-1.94 1.57-3.5 3.5-3.5h13.58L3.28 56.91a3.499 3.499 0 01-.25-4.95c1.29-1.43 3.5-1.54 4.94-.25L27.44 69.3c.07.02.14.04.2.08h9.28L23.11 56.91a3.499 3.499 0 01-.25-4.95 3.505 3.505 0 014.94-.25l16.38 14.8a29.75 29.75 0 015.66-11.98L38.16 42.85a3.483 3.483 0 010-4.94 3.495 3.495 0 014.95 0l11.65 11.65a29.56 29.56 0 0113.72-6.09L52.21 25.45a3.497 3.497 0 01.26-4.94 3.505 3.505 0 014.94.25l12.22 13.53V24.9L52.21 5.62a3.496 3.496 0 01.26-4.94 3.487 3.487 0 014.94.25l12.22 13.52V3.25c0-1.93 1.56-3.5 3.5-3.5 1.93 0 3.5 1.57 3.5 3.5v11.33L88.96.93A3.487 3.487 0 0193.9.68c1.44 1.29 1.55 3.5.26 4.94L76.63 25.03v9.39l12.33-13.66a3.505 3.505 0 014.94-.25c1.44 1.3 1.55 3.51.26 4.94L77.92 43.43c5.13.8 9.82 2.9 13.74 5.96l11.48-11.48a3.495 3.495 0 014.95 0 3.483 3.483 0 010 4.94L96.64 54.31a29.75 29.75 0 016.1 13.85l18.22-16.45a3.505 3.505 0 014.94.25 3.508 3.508 0 01-.25 4.95l-13.81 12.47h9.27c.07-.04.14-.06.21-.08l19.47-17.59a3.505 3.505 0 014.94.25 3.499 3.499 0 01-.25 4.95l-13.81 12.47h11.08c1.93 0 3.5 1.56 3.5 3.5 0 1.93-1.57 3.5-3.5 3.5H132.1l13.38 12.08zm-58.82 2.9L76.63 81.32v14.12c3.71-.54 7.12-1.97 10.03-4.08zm-26.91-.17c2.86 2.13 6.22 3.59 9.88 4.19V81.32l-9.88 9.87zm-4.92-4.97l9.85-9.84h-13.9c.56 3.63 1.98 6.98 4.05 9.84zm0-26.69a22.645 22.645 0 00-4.05 9.85h13.9l-9.85-9.85zm4.92-4.98l9.88 9.88V50.36c-3.66.61-7.02 2.07-9.88 4.19zm26.91-.17c-2.9-2.1-6.32-3.53-10.03-4.07v14.12l10.03-10.05zm4.98 4.93L81.57 69.38h14.29c-.58-3.73-2.06-7.16-4.22-10.07zm0 27.13a22.69 22.69 0 004.22-10.06H81.57l10.07 10.06z"/><path id="Path 2" fill-rule="evenodd" class="shp0" d="M9.73 24.39c0-7.9 6.43-14.33 14.33-14.33 7.91 0 14.33 6.43 14.33 14.33 0 7.91-6.42 14.33-14.33 14.33-7.9 0-14.33-6.42-14.33-14.33zm7 0c0 4.05 3.29 7.33 7.33 7.33 4.05 0 7.33-3.28 7.33-7.33 0-4.04-3.28-7.33-7.33-7.33-4.04 0-7.33 3.29-7.33 7.33zm91.51 0c0-7.9 6.43-14.33 14.33-14.33s14.33 6.43 14.33 14.33c0 7.91-6.43 14.33-14.33 14.33s-14.33-6.42-14.33-14.33zm7 0c0 4.05 3.29 7.33 7.33 7.33s7.33-3.28 7.33-7.33c0-4.04-3.29-7.33-7.33-7.33s-7.33 3.29-7.33 7.33zm-76.85 96.97c0 7.89-6.42 14.32-14.33 14.32-7.9 0-14.33-6.43-14.33-14.32 0-7.91 6.43-14.34 14.33-14.34 7.91 0 14.33 6.43 14.33 14.34zm-7 0c0-4.05-3.28-7.34-7.33-7.34-4.04 0-7.33 3.29-7.33 7.34 0 4.03 3.29 7.32 7.33 7.32 4.05 0 7.33-3.29 7.33-7.32z"/><path id="Path 3" fill-rule="evenodd" class="shp0" d="M136.9 121.36c0 7.89-6.43 14.32-14.33 14.32s-14.33-6.43-14.33-14.32c0-7.91 6.43-14.34 14.33-14.34s14.33 6.43 14.33 14.34zm-7 0c0-4.05-3.29-7.34-7.33-7.34s-7.33 3.29-7.33 7.34c0 4.03 3.29 7.32 7.33 7.32s7.33-3.29 7.33-7.32z"/></g></svg>
